<?xml version="1.0" encoding="UTF-8"?>
<!DOCTYPE svg PUBLIC "-//W3C//DTD SVG 1.1//EN" "http://www.w3.org/Graphics/SVG/1.1/DTD/svg11.dtd">
<svg xmlns="http://www.w3.org/2000/svg" version="1.1" width="700px" height="700px" style="shape-rendering:geometricPrecision; text-rendering:geometricPrecision; image-rendering:optimizeQuality; fill-rule:evenodd; clip-rule:evenodd" xmlns:xlink="http://www.w3.org/1999/xlink">
<g><path style="opacity:0.251" fill="#b8c087" d="M 362.5,11.5 C 359.204,10.5768 355.871,9.57677 352.5,8.5C 350.793,8.72836 349.126,9.0617 347.5,9.5C 348.768,7.61322 350.601,6.61322 353,6.5C 356.405,7.78518 359.572,9.45185 362.5,11.5 Z"/></g>
<g><path style="opacity:1" fill="#f4ca23" d="M 362.5,11.5 C 362.937,13.0744 363.937,14.2411 365.5,15C 458.761,69.7912 552.095,124.291 645.5,178.5C 645.414,179.496 645.748,180.329 646.5,181C 626.155,193.202 605.488,204.702 584.5,215.5C 581.584,204.746 574.917,197.246 564.5,193C 543.073,185.636 527.573,192.136 518,212.5C 513.528,228.386 509.695,244.386 506.5,260.5C 505.733,261.172 505.066,262.005 504.5,263C 476.918,278.707 449.418,294.54 422,310.5C 421.617,309.944 421.117,309.611 420.5,309.5C 412.651,280.108 404.484,250.774 396,221.5C 385.652,196.902 367.152,186.736 340.5,191C 323.468,195.026 311.635,205.193 305,221.5C 287.684,283.104 270.85,344.771 254.5,406.5C 246.792,411.354 238.792,415.688 230.5,419.5C 216.321,354.783 201.821,290.116 187,225.5C 185.154,219.784 183.154,214.117 181,208.5C 177.398,200.117 171.232,194.617 162.5,192C 141.489,186.923 126.322,194.09 117,213.5C 115.197,221.149 115.197,228.816 117,236.5C 134.346,308.884 151.846,381.218 169.5,453.5C 168.969,455.624 167.635,457.124 165.5,458C 129.833,478.5 94.1667,499 58.5,519.5C 57.8313,517.369 57.1646,515.369 56.5,513.5C 57.156,418.501 57.4894,323.501 57.5,228.5C 57.3334,211.497 57.5001,194.497 58,177.5C 65.9178,173.397 73.4178,168.731 80.5,163.5C 83.7043,162.617 86.3709,160.95 88.5,158.5C 90.3084,158.509 91.9751,158.009 93.5,157C 96.921,155.301 99.921,153.135 102.5,150.5C 107.144,149.978 110.811,147.978 113.5,144.5C 115.482,144.005 117.482,143.505 119.5,143C 123.043,139.951 126.709,137.118 130.5,134.5C 135.165,133.172 139.165,130.839 142.5,127.5C 143.514,126.326 144.847,125.66 146.5,125.5C 151.583,124.122 155.916,121.455 159.5,117.5C 162.089,117.539 164.089,116.539 165.5,114.5C 167.336,112.412 169.669,111.079 172.5,110.5C 174.848,110.408 176.514,109.408 177.5,107.5C 182.897,106.101 187.564,103.434 191.5,99.5C 196.66,96.7547 201.994,94.2547 207.5,92C 209.763,90.383 211.763,88.5497 213.5,86.5C 216.326,86.0023 218.66,84.6689 220.5,82.5C 226.446,80.5287 231.779,77.5287 236.5,73.5C 239.599,73.9077 241.933,72.741 243.5,70C 252.095,65.8817 260.095,61.0483 267.5,55.5C 273.457,53.5237 278.79,50.5237 283.5,46.5C 287.742,46.0446 291.075,44.0446 293.5,40.5C 302.134,36.1832 310.8,31.8498 319.5,27.5C 320.425,26.6431 321.092,25.6431 321.5,24.5C 324.331,23.9213 326.664,22.588 328.5,20.5C 333.024,18.9565 337.024,16.6232 340.5,13.5C 343.331,12.9213 345.664,11.588 347.5,9.5C 349.126,9.0617 350.793,8.72836 352.5,8.5C 355.871,9.57677 359.204,10.5768 362.5,11.5 Z"/></g>
<g><path style="opacity:0.271" fill="#bbc489" d="M 347.5,9.5 C 345.664,11.588 343.331,12.9213 340.5,13.5C 342.336,11.412 344.669,10.0787 347.5,9.5 Z"/></g>
<g><path style="opacity:0.18" fill="#b9cba2" d="M 340.5,13.5 C 337.024,16.6232 333.024,18.9565 328.5,20.5C 331.976,17.3768 335.976,15.0435 340.5,13.5 Z"/></g>
<g><path style="opacity:0.227" fill="#bdcda4" d="M 328.5,20.5 C 326.664,22.588 324.331,23.9213 321.5,24.5C 323.336,22.412 325.669,21.0787 328.5,20.5 Z"/></g>
<g><path style="opacity:0.129" fill="#bec88e" d="M 321.5,24.5 C 321.092,25.6431 320.425,26.6431 319.5,27.5C 310.8,31.8498 302.134,36.1832 293.5,40.5C 302.253,34.2399 311.586,28.9066 321.5,24.5 Z"/></g>
<g><path style="opacity:0.922" fill="#d3c86f" d="M 293.5,40.5 C 291.075,44.0446 287.742,46.0446 283.5,46.5C 286.161,43.4977 289.495,41.4977 293.5,40.5 Z"/></g>
<g><path style="opacity:0.196" fill="#becb9a" d="M 283.5,46.5 C 278.79,50.5237 273.457,53.5237 267.5,55.5C 272.316,51.7072 277.65,48.7072 283.5,46.5 Z"/></g>
<g><path style="opacity:0.141" fill="#c1c88e" d="M 267.5,55.5 C 260.095,61.0483 252.095,65.8817 243.5,70C 241.933,72.741 239.599,73.9077 236.5,73.5C 246.366,66.7322 256.7,60.7322 267.5,55.5 Z"/></g>
<g><path style="opacity:0.145" fill="#bac48a" d="M 236.5,73.5 C 231.779,77.5287 226.446,80.5287 220.5,82.5C 225.502,78.9969 230.835,75.9969 236.5,73.5 Z"/></g>
<g><path style="opacity:0.051" fill="#b8cba1" d="M 220.5,82.5 C 218.66,84.6689 216.326,86.0023 213.5,86.5C 215.336,84.412 217.669,83.0787 220.5,82.5 Z"/></g>
<g><path style="opacity:0.749" fill="#c7c783" d="M 213.5,86.5 C 211.763,88.5497 209.763,90.383 207.5,92C 201.994,94.2547 196.66,96.7547 191.5,99.5C 198.496,94.666 205.829,90.3327 213.5,86.5 Z"/></g>
<g><path style="opacity:0.086" fill="#bec891" d="M 362.5,11.5 C 457.636,66.81 552.636,122.31 647.5,178C 648.252,178.671 648.586,179.504 648.5,180.5C 647.5,179.833 646.5,179.167 645.5,178.5C 552.095,124.291 458.761,69.7912 365.5,15C 363.937,14.2411 362.937,13.0744 362.5,11.5 Z"/></g>
<g><path style="opacity:0.957" fill="#cfca7f" d="M 191.5,99.5 C 187.564,103.434 182.897,106.101 177.5,107.5C 181.833,104.331 186.5,101.664 191.5,99.5 Z"/></g>
<g><path style="opacity:0.255" fill="#c1c892" d="M 177.5,107.5 C 176.514,109.408 174.848,110.408 172.5,110.5C 173.659,108.75 175.326,107.75 177.5,107.5 Z"/></g>
<g><path style="opacity:0.122" fill="#bacb99" d="M 165.5,114.5 C 164.089,116.539 162.089,117.539 159.5,117.5C 161.181,115.992 163.181,114.992 165.5,114.5 Z"/></g>
<g><path style="opacity:0.11" fill="#c4cc95" d="M 159.5,117.5 C 155.916,121.455 151.583,124.122 146.5,125.5C 150.323,122.084 154.657,119.418 159.5,117.5 Z"/></g>
<g><path style="opacity:0.141" fill="#bac792" d="M 142.5,127.5 C 139.165,130.839 135.165,133.172 130.5,134.5C 134.164,131.665 138.164,129.332 142.5,127.5 Z"/></g>
<g><path style="opacity:0.047" fill="#c3cc92" d="M 130.5,134.5 C 126.709,137.118 123.043,139.951 119.5,143C 117.482,143.505 115.482,144.005 113.5,144.5C 118.641,140.377 124.308,137.044 130.5,134.5 Z"/></g>
<g><path style="opacity:0.204" fill="#c5c67d" d="M 113.5,144.5 C 110.811,147.978 107.144,149.978 102.5,150.5C 105.678,147.742 109.345,145.742 113.5,144.5 Z"/></g>
<g><path style="opacity:0.118" fill="#becc9b" d="M 102.5,150.5 C 99.921,153.135 96.921,155.301 93.5,157C 91.9751,158.009 90.3084,158.509 88.5,158.5C 92.8652,155.317 97.5319,152.65 102.5,150.5 Z"/></g>
<g><path style="opacity:0.078" fill="#b5c9a0" d="M 88.5,158.5 C 86.3709,160.95 83.7043,162.617 80.5,163.5C 82.6291,161.05 85.2957,159.383 88.5,158.5 Z"/></g>
<g><path style="opacity:1" fill="#e9c01e" d="M 645.5,178.5 C 646.5,179.167 647.5,179.833 648.5,180.5C 648.169,294.5 647.669,408.5 647,522.5C 645.482,524.348 643.649,525.848 641.5,527C 622.909,537.791 604.242,548.291 585.5,558.5C 583.821,558.285 582.821,558.952 582.5,560.5C 574.313,565.427 565.98,570.093 557.5,574.5C 555.973,574.427 554.973,575.094 554.5,576.5C 554.158,577.338 553.492,577.672 552.5,577.5C 550.067,577.273 548.401,578.273 547.5,580.5C 543.194,583.657 538.528,586.324 533.5,588.5C 530.966,588.259 529.3,589.259 528.5,591.5C 526.821,591.285 525.821,591.952 525.5,593.5C 519.127,597.687 512.461,601.353 505.5,604.5C 500.172,606.159 495.506,608.826 491.5,612.5C 483.336,617.75 475.002,622.75 466.5,627.5C 463.911,627.461 461.911,628.461 460.5,630.5C 453.996,635.255 446.996,639.255 439.5,642.5C 437.973,642.427 436.973,643.094 436.5,644.5C 422.768,652.883 408.768,660.883 394.5,668.5C 391.986,668.754 389.652,669.587 387.5,671C 385.937,671.759 384.937,672.926 384.5,674.5C 382.483,675.529 380.483,676.529 378.5,677.5C 376.973,677.427 375.973,678.094 375.5,679.5C 372.422,679.587 370.089,680.92 368.5,683.5C 362.973,689.065 356.306,692.231 348.5,693C 305.94,668.199 263.274,643.032 220.5,617.5C 217.839,614.498 214.505,612.498 210.5,611.5C 200.833,606.669 191.5,601.336 182.5,595.5C 182.027,594.094 181.027,593.427 179.5,593.5C 171.164,589.335 163.164,584.668 155.5,579.5C 153.627,577.837 151.627,576.171 149.5,574.5C 148.311,573.571 146.978,573.238 145.5,573.5C 130.527,565.681 115.86,557.347 101.5,548.5C 100.267,546.204 98.267,544.87 95.5,544.5C 94.3406,542.75 92.674,541.75 90.5,541.5C 78.8619,535.348 67.5286,528.681 56.5,521.5C 56.5,518.833 56.5,516.167 56.5,513.5C 57.1646,515.369 57.8313,517.369 58.5,519.5C 94.1667,499 129.833,478.5 165.5,458C 167.635,457.124 168.969,455.624 169.5,453.5C 176.308,480.061 183.141,506.728 190,533.5C 200.795,573.148 224.961,584.648 262.5,568C 271.817,560.53 277.983,551.03 281,539.5C 304.337,455.484 327.67,371.484 351,287.5C 372.458,364.328 393.458,441.328 414,518.5C 417.135,528.906 420.469,539.239 424,549.5C 433.731,569.206 449.564,577.706 471.5,575C 478.192,574.078 484.525,572.078 490.5,569C 503.077,558.019 510.577,544.186 513,527.5C 537.947,429.045 561.947,330.379 585,231.5C 585.733,226.115 585.567,220.782 584.5,215.5C 605.488,204.702 626.155,193.202 646.5,181C 645.748,180.329 645.414,179.496 645.5,178.5 Z"/></g>
<g><path style="opacity:1" fill="#262626" d="M 230.5,419.5 C 233.601,432.839 236.768,446.172 240,459.5C 244.896,441.852 249.73,424.185 254.5,406.5C 270.85,344.771 287.684,283.104 305,221.5C 311.635,205.193 323.468,195.026 340.5,191C 367.152,186.736 385.652,196.902 396,221.5C 404.484,250.774 412.651,280.108 420.5,309.5C 433.854,359.581 447.52,409.581 461.5,459.5C 476.625,393.212 491.625,326.879 506.5,260.5C 509.695,244.386 513.528,228.386 518,212.5C 527.573,192.136 543.073,185.636 564.5,193C 574.917,197.246 581.584,204.746 584.5,215.5C 585.567,220.782 585.733,226.115 585,231.5C 561.947,330.379 537.947,429.045 513,527.5C 510.577,544.186 503.077,558.019 490.5,569C 484.525,572.078 478.192,574.078 471.5,575C 449.564,577.706 433.731,569.206 424,549.5C 420.469,539.239 417.135,528.906 414,518.5C 393.458,441.328 372.458,364.328 351,287.5C 327.67,371.484 304.337,455.484 281,539.5C 277.983,551.03 271.817,560.53 262.5,568C 224.961,584.648 200.795,573.148 190,533.5C 183.141,506.728 176.308,480.061 169.5,453.5C 151.846,381.218 134.346,308.884 117,236.5C 115.197,228.816 115.197,221.149 117,213.5C 126.322,194.09 141.489,186.923 162.5,192C 171.232,194.617 177.398,200.117 181,208.5C 183.154,214.117 185.154,219.784 187,225.5C 201.821,290.116 216.321,354.783 230.5,419.5 Z"/></g>
<g><path style="opacity:1" fill="#272726" d="M 238.5,194.5 C 262.398,194.235 274.565,205.902 275,229.5C 270.095,249.06 257.595,257.56 237.5,255C 220.539,249.259 213.039,237.426 215,219.5C 216.322,211.178 220.489,204.678 227.5,200C 231.259,198.121 234.925,196.287 238.5,194.5 Z"/></g>
<g><path style="opacity:1" fill="#272726" d="M 449.5,194.5 C 473.398,194.235 485.565,205.902 486,229.5C 481.095,249.06 468.595,257.56 448.5,255C 431.539,249.259 424.039,237.426 426,219.5C 427.322,211.178 431.489,204.678 438.5,200C 442.259,198.121 445.925,196.287 449.5,194.5 Z"/></g>
<g><path style="opacity:0.361" fill="#bbc07d" d="M 80.5,163.5 C 73.4178,168.731 65.9178,173.397 58,177.5C 57.5001,194.497 57.3334,211.497 57.5,228.5C 57.1667,228.5 56.8333,228.5 56.5,228.5C 56.3334,211.163 56.5001,193.83 57,176.5C 64.4854,171.508 72.3188,167.175 80.5,163.5 Z"/></g>
<g><path style="opacity:1" fill="#e7bf1c" d="M 506.5,260.5 C 491.625,326.879 476.625,393.212 461.5,459.5C 447.52,409.581 433.854,359.581 420.5,309.5C 421.117,309.611 421.617,309.944 422,310.5C 449.418,294.54 476.918,278.707 504.5,263C 505.066,262.005 505.733,261.172 506.5,260.5 Z"/></g>
<g><path style="opacity:0.662" fill="#cbcb8b" d="M 56.5,228.5 C 56.8333,228.5 57.1667,228.5 57.5,228.5C 57.4894,323.501 57.156,418.501 56.5,513.5C 56.5,516.167 56.5,518.833 56.5,521.5C 55.7784,521.082 55.2784,520.416 55,519.5C 55.3341,422.361 55.8341,325.361 56.5,228.5 Z"/></g>
<g><path style="opacity:1" fill="#e2ba1d" d="M 254.5,406.5 C 249.73,424.185 244.896,441.852 240,459.5C 236.768,446.172 233.601,432.839 230.5,419.5C 238.792,415.688 246.792,411.354 254.5,406.5 Z"/></g>
<g><path style="opacity:0.035" fill="#b5cfb1" d="M 90.5,541.5 C 92.674,541.75 94.3406,542.75 95.5,544.5C 93.326,544.25 91.6594,543.25 90.5,541.5 Z"/></g>
<g><path style="opacity:0.145" fill="#c1cca2" d="M 95.5,544.5 C 98.267,544.87 100.267,546.204 101.5,548.5C 99.1184,547.649 97.1184,546.316 95.5,544.5 Z"/></g>
<g><path style="opacity:0.004" fill="#bed6bc" d="M 585.5,558.5 C 585.027,559.906 584.027,560.573 582.5,560.5C 582.821,558.952 583.821,558.285 585.5,558.5 Z"/></g>
<g><path style="opacity:0.976" fill="#d4c87a" d="M 145.5,573.5 C 146.978,573.238 148.311,573.571 149.5,574.5C 151.627,576.171 153.627,577.837 155.5,579.5C 151.495,578.502 148.161,576.502 145.5,573.5 Z"/></g>
<g><path style="opacity:0.004" fill="#a7c6a4" d="M 557.5,574.5 C 557.027,575.906 556.027,576.573 554.5,576.5C 554.973,575.094 555.973,574.427 557.5,574.5 Z"/></g>
<g><path style="opacity:0.027" fill="#c1d4ae" d="M 552.5,577.5 C 551.101,578.89 549.434,579.89 547.5,580.5C 548.401,578.273 550.067,577.273 552.5,577.5 Z"/></g>
<g><path style="opacity:0.141" fill="#becca6" d="M 533.5,588.5 C 532.101,589.89 530.434,590.89 528.5,591.5C 529.3,589.259 530.966,588.259 533.5,588.5 Z"/></g>
<g><path style="opacity:0.059" fill="#bcd2b6" d="M 528.5,591.5 C 527.71,592.401 526.71,593.068 525.5,593.5C 525.821,591.952 526.821,591.285 528.5,591.5 Z"/></g>
<g><path style="opacity:0.047" fill="#b1cfba" d="M 179.5,593.5 C 181.027,593.427 182.027,594.094 182.5,595.5C 180.973,595.573 179.973,594.906 179.5,593.5 Z"/></g>
<g><path style="opacity:0.098" fill="#d6c66f" d="M 505.5,604.5 C 501.167,607.669 496.5,610.336 491.5,612.5C 495.506,608.826 500.172,606.159 505.5,604.5 Z"/></g>
<g><path style="opacity:0.082" fill="#dac86e" d="M 210.5,611.5 C 214.505,612.498 217.839,614.498 220.5,617.5C 216.495,616.502 213.161,614.502 210.5,611.5 Z"/></g>
<g><path style="opacity:0.039" fill="#bad0b1" d="M 466.5,627.5 C 464.819,629.008 462.819,630.008 460.5,630.5C 461.911,628.461 463.911,627.461 466.5,627.5 Z"/></g>
<g><path style="opacity:0.004" fill="#c1d5ba" d="M 439.5,642.5 C 439.027,643.906 438.027,644.573 436.5,644.5C 436.973,643.094 437.973,642.427 439.5,642.5 Z"/></g>
<g><path style="opacity:0.243" fill="#d6c56b" d="M 394.5,668.5 C 391.534,670.988 388.201,672.988 384.5,674.5C 384.937,672.926 385.937,671.759 387.5,671C 389.652,669.587 391.986,668.754 394.5,668.5 Z"/></g>
<g><path style="opacity:0.008" fill="#b3ceb1" d="M 378.5,677.5 C 378.027,678.906 377.027,679.573 375.5,679.5C 375.973,678.094 376.973,677.427 378.5,677.5 Z"/></g>
<g><path style="opacity:0.533" fill="#cbcd91" d="M 375.5,679.5 C 373.664,681.588 371.331,682.921 368.5,683.5C 370.089,680.92 372.422,679.587 375.5,679.5 Z"/></g>
</svg>
